<svg xmlns="http://www.w3.org/2000/svg" width="40" height="40"><path d="M15.3516 3.0977c-6.6407.3007-12.0782 4.1992-13.211 9.4687-.1797.836-.1797 2.6602 0 3.4805.4219 1.914 1.293 3.5 2.793 5.086l.7422.7812-.0938.4296c-.0468.2344-.1836.8672-.2968 1.4063-.1133.539-.3438 1.6406-.5196 2.4531-.1719.8164-.3125 1.5547-.3086 1.6407.004.293.293.5507.6094.5507.2305 0 .4297-.1093 1.0274-.5468.828-.6094 1.703-1.2461 3.0078-2.1914l.875-.6368.1757.5586c1.1758 3.6836 4.75 6.6875 9.3555 7.8594 1.3203.336 2.3008.4727 3.7735.5234 1.914.0664 3.6289-.1406 5.4492-.6523l.7187-.2031.8047.582c.4414.3203 1.211.879 1.7148 1.2383l.9102.6601-12.0156.0391c-11.457.039-12.0274.0469-12.1758.1797-.3281.2969-.2188.8945.1914 1.0547.164.0625 4.039.082 14.4961.0703 14.1719-.0156 14.2773-.0156 14.4336-.1719.2617-.2617.2852-.6016.0586-.8672l-.1953-.2265-1.1328-.0235-1.129-.0273-.043-.2461c-.0234-.1367-.1718-.8477-.3241-1.5781-.3828-1.8047-.5117-2.422-.625-2.9532l-.0977-.453.711-.7227c3.0937-3.1602 3.8359-7.2344 2-10.9493-.9024-1.8242-2.4258-3.4726-4.3282-4.6836-.5508-.3476-1.7539-.9804-2.1992-1.1562l-.3203-.125-.207-.7969c-.4336-1.6484-1.3047-3.1054-2.711-4.5312-1.8945-1.922-4.293-3.2227-7.1875-3.8946-1.3242-.3086-3.3437-.4882-4.7265-.4257m-.8203 1.328c-2.1055.215-4.4532.9415-6.0547 1.879C5.953 7.7812 4.2734 9.7734 3.543 12.1562c-.1953.6407-.2149.8047-.2188 2.0625-.0039 1.1016.0235 1.4727.1446 1.9141.4648 1.7344 1.375 3.211 2.7812 4.504.3906.3593.7266.7226.746.8085.0235.086-.1718 1.168-.4296 2.4063-.2617 1.2382-.4726 2.2851-.4726 2.328 0 .0938.4414-.207 2.5312-1.746 1.211-.8906 1.621-1.1523 1.8008-1.1523.1328 0 .5195.0898.8633.1992 3.1992 1.0039 6.7617.9726 9.9453-.0899 3.207-1.0703 5.6758-3.0703 6.9336-5.6172.5937-1.207.75-1.8476.7968-3.2656.0313-1 .0118-1.2578-.1367-1.9023-.9687-4.2032-5.0937-7.3633-10.582-8.1133-.7695-.1055-2.9336-.1445-3.7148-.0664m-.2305 2.5234c-.1836.1836-.2149.3516-.3203 1.8399-.043.6445-.1016 1.453-.129 1.7968l-.043.625h-3.039l-.1914.2188c-.2383.2773-.2383.5351 0 .8125l.1875.2187 1.461.0235 1.4609.0273-.0508.8711c-.0273.4805-.0664 1-.0898 1.1524l-.039.2734-1.4923-.0195c-1.9258-.0313-2.1875.0351-2.2968.5859-.043.2031-.0079.2852.1875.4805l.2382.2383h3.3008l-.0469.4492c-.0234.246-.0976 1.1367-.1601 1.9726-.1094 1.461-.1094 1.5313.0312 1.7188.211.2851.6953.3086.9414.0468.1641-.1718.1914-.3164.2852-1.5078.0586-.7226.125-1.539.1484-1.8203.0235-.2812.039-.586.043-.6836 0-.1758 0-.1758 1.4063-.1758H17.5v.2149c.004.1172-.0547 1-.129 1.957-.1288 1.7305-.1288 1.7422.0274 1.9532.129.1718.2188.2109.4922.2109.5547 0 .6016-.125.7422-1.9531.0625-.8594.1367-1.7461.1602-1.9688l.0468-.4062 1.4063-.0235 1.4102-.0234.1874-.2188c.2383-.2773.2383-.5351.004-.8047l-.1836-.2148-1.3477-.0195c-.7422-.0117-1.3555-.0313-1.371-.0469-.0118-.0117.0155-.5234.0624-1.1367l.082-1.1133h3.6563l.2383-.2383c.1992-.1992.2304-.2773.1875-.4883-.0274-.1367-.1211-.3203-.207-.4062-.1446-.1445-.2696-.1563-1.922-.1719-.9687-.0078-1.785-.0351-1.8085-.0586-.0235-.0234-.004-.5469.0508-1.1562.203-2.457.207-2.7305.0156-2.9688-.2578-.3242-.8203-.2773-1.0117.082-.043.0782-.129.9141-.1993 1.8555-.0664.9414-.1406 1.8281-.164 1.9688-.0469.289.1055.2656-1.793.2656-.4922 0-.9336-.004-.9765-.0078-.0508 0-.0625-.2031-.0352-.5313.293-3.6406.293-3.4922-.0352-3.746-.1914-.1485-.6132-.1212-.7851.0507m.6719 5.8047c-.0586.3555-.1524 1.9219-.1172 1.9805.0234.0468.9687.0625 2.2617.039l.5195-.0078.0508-.7226c.0273-.3985.0703-.9063.0977-1.1328l.0468-.4102h-2.8164l-.043.254m15.3047 2.1483c-.2382 2.918-1.7421 5.4844-4.3867 7.4961-2.6484 2.0079-6.0234 3.0704-9.7695 3.0704-1.4727 0-2.6367-.125-3.9688-.4297-.4687-.1055-.8632-.1797-.8789-.1641-.0156.0156.0625.2695.172.5625 1.3788 3.6602 4.9413 6.2344 9.7773 7.0664 1.2812.2188 3.6718.2461 4.9648.0508.9023-.1367 2.1563-.4375 2.8984-.6914.3711-.1328.5-.1445.6563-.0742.1094.0507 1.0898.7382 2.1836 1.5312 1.0898.7969 1.996 1.4453 2.0156 1.4453.0156 0-.0156-.1836-.0703-.4101a37.3744 37.3744 0 0 1-.2617-1.1914 314.4491 314.4491 0 0 0-.4024-1.8985c-.1328-.6133-.2383-1.1758-.2383-1.2422 0-.0703.3633-.4843.8086-.914.4454-.4336 1.0274-1.086 1.297-1.4492 1.8554-2.5196 2.1757-5.5743.8671-8.3164-.8906-1.8672-2.8242-3.75-4.9453-4.8204-.332-.168-.6172-.3047-.6328-.3047-.0195 0-.0586.3086-.086.6836m1.2774 2.6993c-.1992.1523-.3164.4375-.2617.625.0312.0937.2226.4023.4258.6796 1.0664 1.4649 1.7148 3.2227 1.7187 4.6563 0 .75.4102 1.125.9375.8516.2969-.1524.3438-.3555.293-1.2774-.1055-1.8242-1.0625-4.1172-2.2305-5.3437-.2969-.3125-.6328-.3828-.8828-.1914M28.8242 23.5c-.0625.0195-.5195.3086-1.0117.6406-1.5977 1.0703-3.0977 1.7852-5.0273 2.3907-1.797.5624-4.1368.9609-5.6758.9726-.836.004-1.3282.0977-1.461.2773-.1562.2149-.1289.6876.0547.8516.2266.207.7735.2266 2.3438.0899 1.6328-.1446 2.4922-.2852 3.914-.6368 2.1954-.5468 4.5235-1.5546 6.3672-2.7617.9766-.6367 1.2813-.9297 1.2813-1.2226 0-.3633-.4453-.7032-.7852-.6016" style="stroke:none;fill-rule:evenodd;fill:#ffffffed;fill-opacity:1"/></svg>